<svg xmlns="http://www.w3.org/2000/svg" width="200.028" height="112.836" viewBox="87 126 200.028 112.836"><g data-name="LOGO"><path d="M112.812 144.684c-8.478 12.113-3.026 31.919 11.576 49.002 15.979 18.694 40.124 30.881 59.456 21.89-5.588 1.899-11.996 2.144-18.622.83-6.722-1.335-13.545-4.276-19.78-8.565 8.08 3.814 16.31 5.39 23.695 4.792 7.124-.577 13.26-3.151 17.687-7.464a23.106 23.106 0 0 0 4.01-5.208h20.164c-.047.583-.096 1.173-.149 1.765-.147 1.884-.315 3.763-.475 5.72-.249 2.791-6.555-3.78-8.551-2.545-2.03 1.288-3.566 4.157-3.745 7.292-.22 3.21 7.294 8.664 5.343 10.488a203.381 203.381 0 0 1-4.33 4.116 440.076 440.076 0 0 1-4.627 4.37c-2.261 2.121-5.87-7.762-9.205-8.135-3.386-.391-7.177.896-9.545 3.228-2.44 2.44 3.078 12.217-.57 12.282l-7.955.145-8.236.148c-3.947.073-1.567-10.182-5.11-12.753-3.498-2.523-8.386-4.012-12.265-3.714-3.947.302-4.33 11.318-8.101 8.961a1827.414 1827.414 0 0 1-8.037-5.057 559.706 559.706 0 0 1-7.998-5.013c-3.728-2.28 4.441-8.312 2.61-12.156-1.782-3.778-5.373-7.434-9.073-9.302-3.67-1.839-10.134 5.524-12.044 1.919-1.346-2.54-2.692-4.99-4.009-7.463-1.274-2.373-2.55-4.766-3.812-7.072-1.738-3.227 8.12-3.433 8.699-6.772.562-3.24-.409-7.225-2.37-9.983-1.956-2.75-10.86-.695-10.428-3.72l.885-6.214.827-5.782c.372-2.607 7.955.906 10.183-1.003 2.137-1.852 3.462-4.692 3.364-7.1-.107-2.336-7.905-4.163-6.031-5.844 1.298-1.199 2.579-2.345 3.823-3.486 1.224-1.099 2.423-2.206 3.606-3.26 1.601-1.48 5.73 3.16 8.464 2.726 2.688-.403 5.236-1.748 6.408-3.294 1.151-1.5-4.248-5.135-1.882-5.607 1.655-.305 3.288-.622 4.902-.935 1.591-.289 3.16-.586 4.69-.883 2.131-.413 3.264 3.842 5.856 4.479 2.577.629 5.592.655 7.511.058 1.886-.578-1.087-4.74 1.302-4.255l5.024 1.026 4.947 1.004c2.276.464.951 3.673 3.15 5.038 2.2 1.36 5.184 2.465 7.432 2.767 2.222.301 1.627-3.582 3.783-2.383l4.622 2.58 4.646 2.59c2.173 1.223-1.158 2.946.38 4.772 1.538 1.835 4.128 3.874 6.456 5.046 2.313 1.19 4.037-1.873 5.739-.077l3.716 3.9 2.46 2.604H179.23a60.356 60.356 0 0 0-5.3-4.806c-7.286-5.857-16.247-10.257-25.666-11.977-7.713-1.41-14.853-.846-20.754 1.397-6.303 2.398-11.407 6.765-14.212 12.817 1.172-5.375 4.026-9.858 8.063-13.12 3.805-3.077 8.706-5.115 14.448-5.889-9.767.337-18.176 4.2-22.997 11.085" fill="#0057b8" fill-rule="evenodd" data-name="Path 30"/><path d="M183.844 215.576c-5.588 1.899-11.996 2.144-18.622.83-6.722-1.335-13.545-4.276-19.78-8.565 8.08 3.814 16.31 5.39 23.695 4.792 7.124-.577 13.26-3.151 17.687-7.465a23.107 23.107 0 0 0 4.01-5.207h10.737a40.197 40.197 0 0 1-17.727 15.615m-71.031-70.892c4.82-6.885 13.23-10.748 22.996-11.085-5.742.774-10.643 2.812-14.448 5.888-4.037 3.263-6.891 7.746-8.063 13.12 2.805-6.051 7.909-10.418 14.212-12.816 5.9-2.243 13.04-2.807 20.754-1.397 9.419 1.72 18.38 6.12 25.665 11.977 1.855 1.49 3.63 3.1 5.302 4.806h14.047l-2.46-2.604-3.716-3.9c-1.702-1.796-3.426 1.267-5.74.077-2.327-1.172-4.917-3.21-6.455-5.046-1.538-1.826 1.793-3.55-.38-4.773l-4.646-2.589-4.622-2.58c-2.156-1.199-1.56 2.684-3.783 2.383-2.248-.302-5.232-1.406-7.433-2.767-2.198-1.365-.873-4.574-3.149-5.038l-4.947-1.004-5.024-1.026c-2.389-.486.584 3.677-1.302 4.255-.912.283-2.074.426-3.317.43h-.01c-.254 0-.51-.004-.771-.015-13.426-.09-24.849 9.928-26.435 23.344.518-3.546 1.74-6.803 3.725-9.64" fill="#1c81f2" fill-rule="evenodd" data-name="Path 31"/><path d="M138.78 182.468c1.902 0 3.456-.753 4.663-2.258l2.48 2.555c-1.968 2.215-4.286 3.323-6.956 3.323-2.67 0-4.87-.844-6.597-2.53-1.727-1.686-2.592-3.815-2.592-6.385 0-2.571.881-4.716 2.642-6.436 1.76-1.72 3.914-2.578 6.46-2.578 2.843 0 5.224 1.082 7.142 3.248l-2.405 2.727c-1.224-1.52-2.745-2.28-4.563-2.28-1.455 0-2.7.474-3.732 1.425-1.034.951-1.55 2.232-1.55 3.844 0 1.612.487 2.906 1.463 3.88.975.977 2.157 1.465 3.545 1.465Zm25.494 3.421-1.612-3.744h-7.266l-1.612 3.744h-4.117l7.49-17.334h3.744l7.49 17.334h-4.117Zm-5.233-12.175-2.182 5.034h4.34l-2.158-5.034Zm28.37.595c0 2.777-1.1 4.57-3.298 5.38l4.39 6.2h-4.762l-3.844-5.53h-2.678v5.53h-3.869v-17.334h6.572c2.695 0 4.616.455 5.766 1.364 1.149.91 1.723 2.372 1.723 4.39Zm-4.662 2.057c.48-.429.72-1.111.72-2.046 0-.933-.249-1.574-.745-1.921-.496-.348-1.364-.52-2.604-.52h-2.901v5.132h2.827c1.322 0 2.223-.214 2.703-.645Zm23.522-6.261c1.215 1.033 1.823 2.62 1.823 4.761s-.624 3.708-1.872 4.7c-1.25.992-3.154 1.487-5.717 1.487h-2.306v4.836h-3.87v-17.334h6.126c2.662 0 4.601.517 5.816 1.55Zm-2.84 6.82c.463-.521.695-1.281.695-2.282 0-1-.303-1.711-.906-2.133-.603-.421-1.542-.632-2.814-.632H198.2v5.828h2.603c1.29 0 2.167-.26 2.63-.782Zm22.989 8.964-1.612-3.744h-7.266l-1.612 3.744h-4.117l7.49-17.334h3.744l7.49 17.334h-4.117Zm-5.233-12.175-2.182 5.034h4.34l-2.158-5.034Zm28.37.595c0 2.777-1.1 4.57-3.299 5.38l4.39 6.2h-4.761l-3.844-5.53h-2.678v5.53h-3.869v-17.334h6.571c2.695 0 4.617.455 5.766 1.364 1.15.91 1.724 2.372 1.724 4.39Zm-4.662 2.057c.479-.429.719-1.111.719-2.046 0-.933-.248-1.574-.744-1.921-.496-.348-1.364-.52-2.604-.52h-2.901v5.132h2.827c1.322 0 2.223-.214 2.703-.645Zm18.922-4.463v13.986h-3.87v-13.986h-4.91v-3.348h13.69v3.348h-4.91Zm14.742.111c-.372.306-.558.711-.558 1.215 0 .505.227.905.682 1.203.454.298 1.504.65 3.15 1.054 1.644.406 2.922 1.013 3.831 1.823.909.81 1.364 1.992 1.364 3.546 0 1.554-.583 2.815-1.748 3.783-1.166.966-2.7 1.45-4.6 1.45-2.745 0-5.217-1.017-7.415-3.05l2.306-2.828c1.868 1.638 3.595 2.455 5.183 2.455.71 0 1.268-.152 1.674-.458.404-.306.607-.719.607-1.24s-.215-.934-.644-1.24c-.43-.306-1.282-.616-2.555-.93-2.018-.48-3.493-1.103-4.426-1.873-.935-.768-1.401-1.975-1.401-3.62s.59-2.914 1.772-3.807c1.182-.893 2.657-1.338 4.427-1.338 1.157 0 2.314.197 3.472.595 1.157.396 2.166.958 3.025 1.685l-1.959 2.828c-1.504-1.141-3.058-1.712-4.662-1.712-.644 0-1.153.154-1.525.46Z" fill="#2d3d5e" fill-rule="evenodd" data-name="CARPARTS"/></g></svg>