<svg xmlns="http://www.w3.org/2000/svg" width="200.004" height="182" viewBox="-4716 -1986 200.004 182"><g data-name="CompositeLayer"><path d="M-4674.365-1955.864c-13.675 19.538-4.882 51.484 18.67 79.04 25.774 30.152 64.718 49.81 95.901 35.306-9.014 3.064-19.349 3.46-30.037 1.339-10.842-2.152-21.847-6.896-31.903-13.814 13.032 6.152 26.305 8.693 38.218 7.73 11.491-.932 21.388-5.084 28.53-12.041a37.269 37.269 0 0 0 6.466-8.4h32.524c-.076.941-.155 1.892-.24 2.848-.238 3.038-.509 6.068-.766 9.225-.402 4.502-10.573-6.097-13.793-4.105-3.273 2.077-5.752 6.706-6.04 11.762-.356 5.177 11.765 13.976 8.619 16.916a328.166 328.166 0 0 1-6.986 6.64 710.677 710.677 0 0 1-7.463 7.048c-3.647 3.422-9.467-12.519-14.846-13.121-5.462-.631-11.577 1.445-15.396 5.206-3.936 3.938 4.964 19.706-.921 19.812l-12.83.233-13.284.24c-6.367.116-2.528-16.425-8.243-20.571-5.641-4.07-13.526-6.472-19.782-5.992-6.367.488-6.984 18.256-13.068 14.455a2951.9 2951.9 0 0 1-12.963-8.158c-4.315-2.642-8.607-5.355-12.9-8.085-6.013-3.677 7.163-13.408 4.211-19.607-2.876-6.093-8.668-11.99-14.636-15.005-5.918-2.964-16.345 8.912-19.426 3.096-2.17-4.095-4.343-8.048-6.466-12.036-2.056-3.829-4.115-7.688-6.15-11.408-2.803-5.205 13.097-5.537 14.032-10.923.906-5.225-.659-11.654-3.823-16.102-3.155-4.435-17.517-1.121-16.82-6.001l1.428-10.022 1.333-9.326c.6-4.206 12.832 1.46 16.425-1.619 3.447-2.986 5.585-7.567 5.427-11.45-.173-3.77-12.75-6.717-9.729-9.427 2.094-1.934 4.16-3.782 6.166-5.623 1.976-1.773 3.91-3.558 5.817-5.26 2.583-2.386 9.243 5.1 13.653 4.398 4.336-.65 8.445-2.819 10.335-5.312 1.857-2.421-6.851-8.283-3.034-9.044a913.532 913.532 0 0 0 7.905-1.508c2.567-.466 5.097-.947 7.565-1.424 3.438-.667 5.265 6.197 9.446 7.223 4.156 1.015 9.02 1.057 12.115.094 3.042-.933-1.753-7.646 2.1-6.863l8.103 1.655 7.98 1.62c3.671.747 1.534 5.924 5.08 8.125 3.549 2.195 8.362 3.976 11.987 4.464 3.586.486 2.625-5.778 6.102-3.844l7.456 4.161 7.493 4.177c3.506 1.973-1.867 4.753.613 7.697 2.48 2.961 6.658 6.25 10.413 8.14 3.732 1.92 6.513-3.022 9.257-.125l5.994 6.29 3.969 4.201h-22.659a97.347 97.347 0 0 0-8.55-7.751c-11.752-9.448-26.205-16.545-41.397-19.32-12.442-2.273-23.958-1.364-33.476 2.255-10.166 3.867-18.398 10.91-22.924 20.672 1.891-8.67 6.495-15.9 13.007-21.163 6.136-4.962 14.042-8.248 23.303-9.497-15.753.544-29.318 6.774-37.092 17.88" fill="#0057b8" fill-rule="evenodd" data-name="Path 30"/><path d="M-4559.794-1841.518c-9.014 3.064-19.349 3.46-30.037 1.339-10.842-2.152-21.847-6.896-31.903-13.814 13.032 6.152 26.305 8.693 38.218 7.73 11.491-.932 21.388-5.084 28.53-12.041a37.269 37.269 0 0 0 6.466-8.4h17.32a64.837 64.837 0 0 1-28.594 25.186m-114.571-114.345c7.774-11.106 21.339-17.336 37.092-17.88-9.261 1.249-17.167 4.535-23.303 9.497-6.512 5.263-11.116 12.493-13.007 21.163 4.526-9.762 12.758-16.805 22.924-20.672 9.518-3.619 21.034-4.528 33.476-2.254 15.192 2.774 29.645 9.87 41.397 19.319 2.99 2.402 5.854 5 8.55 7.751h22.659l-3.969-4.2-5.994-6.291c-2.744-2.897-5.525 2.045-9.257.125-3.755-1.89-7.932-5.179-10.413-8.14-2.48-2.944 2.893-5.724-.613-7.697l-7.493-4.177-7.456-4.16c-3.477-1.935-2.516 4.329-6.102 3.843-3.625-.488-8.438-2.269-11.988-4.464-3.545-2.2-1.408-7.378-5.08-8.125l-7.98-1.62-8.103-1.655c-3.852-.783.943 5.93-2.099 6.863-1.47.457-3.346.687-5.35.695h-.017c-.41 0-.823-.008-1.243-.026-21.657-.145-40.08 16.014-42.64 37.654.837-5.72 2.809-10.974 6.009-15.55" fill="#1c81f2" fill-rule="evenodd" data-name="Path 31"/></g></svg>