<svg xmlns="http://www.w3.org/2000/svg" width="22" height="21.999" viewBox="320.6 547.501 22 21.999"><path d="M336.865 560.89a1.71 1.71 0 0 0-2.42 0l-.935.935a15.751 15.751 0 0 1-5.233-5.234l1.025-1.024a1.713 1.713 0 0 0 0-2.42l-3.21-3.21a1.71 1.71 0 0 0-2.421.003l-2.017 2.032c-.965.81-1.304 2.14-.864 3.4 2.258 6.471 7.469 11.682 13.939 13.94 1.217.424 2.467.107 3.262-.712a.702.702 0 0 0 .034-.032l2.049-2.049a1.713 1.713 0 0 0 0-2.42l-3.21-3.209Zm2.187 4.607-2.003 2.003a.706.706 0 0 0-.07.066c-.421.458-1.1.616-1.774.38-6.058-2.113-10.936-6.992-13.05-13.05-.242-.693-.067-1.412.445-1.83a.733.733 0 0 0 .056-.05l2.039-2.056a.264.264 0 0 1 .375 0l3.21 3.209a.266.266 0 0 1 0 .375l-1.42 1.42a.723.723 0 0 0-.119.866 17.199 17.199 0 0 0 6.53 6.53c.283.16.637.112.867-.118l1.33-1.33a.265.265 0 0 1 .375 0l3.209 3.21a.266.266 0 0 1 0 .375Zm-7.62-11.63c0-.4.323-.723.723-.723a4.809 4.809 0 0 1 4.803 4.803.723.723 0 0 1-1.446 0 3.361 3.361 0 0 0-3.357-3.357.723.723 0 0 1-.723-.723Zm0-2.838c0-.399.323-.722.723-.722 4.213 0 7.64 3.427 7.64 7.64a.723.723 0 0 1-1.446 0 6.202 6.202 0 0 0-6.194-6.195.723.723 0 0 1-.723-.723Zm11.168 6.918a.723.723 0 0 1-1.445 0c0-4.963-4.038-9-9-9a.723.723 0 0 1 0-1.446c2.79 0 5.413 1.087 7.386 3.06a10.377 10.377 0 0 1 3.06 7.386Z" fill="#fff" fill-rule="evenodd" data-name="icon"/></svg>