<svg xmlns="http://www.w3.org/2000/svg" width="24" height="24" viewBox="98 323 24 24"><g data-name="DELETE"><path d="M104 323h12a6 6 0 0 1 6 6v12a6 6 0 0 1-6 6h-12a6 6 0 0 1-6-6v-12a6 6 0 0 1 6-6Z" fill="#e4edf7" fill-rule="evenodd" data-name="shape"/><path d="m115.77 341.789-12.559-12.56a.72.72 0 1 1 1.019-1.018l12.56 12.56a.72.72 0 0 1-1.02 1.018Zm-12.559 0a.72.72 0 0 1 0-1.019l12.56-12.56a.72.72 0 0 1 1.018 1.019l-12.56 12.56a.72.72 0 0 1-1.018 0Z" fill="#0057b8" fill-rule="evenodd" data-name="icon"/></g></svg>