<svg xmlns="http://www.w3.org/2000/svg" width="22" height="22" viewBox="20 0 22 22"><path d="M28.25 0h-6.875C20.615 0 20 .615 20 1.375V8.25c0 .76.615 1.375 1.375 1.375h6.875c.76 0 1.375-.616 1.375-1.375V1.375C29.625.615 29.01 0 28.25 0Zm0 8.25h-6.875V1.375h6.875V8.25ZM40.625 0H33.75c-.76 0-1.375.615-1.375 1.375V8.25c0 .76.615 1.375 1.375 1.375h6.875c.759 0 1.375-.616 1.375-1.375V1.375C42 .615 41.384 0 40.625 0Zm0 8.25H33.75V1.375h6.875V8.25Zm0 4.125H33.75c-.76 0-1.375.616-1.375 1.375v6.875c0 .76.615 1.375 1.375 1.375h6.875c.759 0 1.375-.615 1.375-1.375V13.75c0-.76-.616-1.375-1.375-1.375Zm0 8.25H33.75V13.75h6.875v6.875Zm-12.375-8.25h-6.875c-.76 0-1.375.616-1.375 1.375v6.875c0 .76.615 1.375 1.375 1.375h6.875c.76 0 1.375-.615 1.375-1.375V13.75c0-.76-.615-1.375-1.375-1.375Zm0 8.25h-6.875V13.75h6.875v6.875Zm0 0" fill="#0057b8" fill-rule="evenodd" data-name="icon"/></svg>