<svg xmlns="http://www.w3.org/2000/svg" width="18" height="22" viewBox="79 332 18 22"><path d="m96.944 336.918-.487-1.456a1.357 1.357 0 0 0-1.289-.928h-4.09v-1.329c0-.664-.54-1.205-1.206-1.205h-3.745c-.665 0-1.206.54-1.206 1.205v1.33h-4.09c-.586 0-1.104.372-1.289.927l-.487 1.456a1.09 1.09 0 0 0 1.036 1.435h.509l1.12 13.818A2.001 2.001 0 0 0 83.703 354h8.818c1.03 0 1.902-.803 1.985-1.829l1.12-13.818h.28a1.091 1.091 0 0 0 1.036-1.435Zm-10.732-3.629h3.575v1.245h-3.575v-1.245Zm7.008 18.778a.704.704 0 0 1-.698.644h-8.818a.704.704 0 0 1-.698-.644l-1.11-13.714H94.33l-1.111 13.714Zm-12.852-15.004.399-1.194a.067.067 0 0 1 .064-.046h14.337c.03 0 .055.019.064.046l.4 1.194H80.367Zm10.792 14.959h.034a.645.645 0 0 0 .645-.61l.606-11.62a.645.645 0 0 0-1.29-.066l-.606 11.618a.645.645 0 0 0 .611.678Zm-6.97-.609a.645.645 0 0 0 1.289-.07l-.635-11.619a.645.645 0 0 0-1.29.07l.635 11.619Zm3.817.61a.645.645 0 0 0 .645-.645v-11.619a.645.645 0 0 0-1.29 0v11.619c0 .356.288.644.645.644Zm0 0" fill="#0057b8" fill-rule="evenodd" data-name="icon"/></svg>