<svg xmlns="http://www.w3.org/2000/svg" width="22" height="22" viewBox="18 332 22 22"><path d="m39.315 334.677-1.993-1.994a2.339 2.339 0 0 0-3.304 0l-14.832 14.834a.656.656 0 0 0-.178.338l-.997 5.383a.645.645 0 0 0 .751.751l5.383-.997a.656.656 0 0 0 .338-.178l14.832-14.833a2.335 2.335 0 0 0 0-3.304Zm-15.288 16.77-3.474-3.475 12.685-12.685 3.474 3.474-12.685 12.686Zm-3.975-2.152 2.653 2.653-3.256.603.603-3.256Zm18.352-12.226-.78.78-3.475-3.474.78-.78a1.048 1.048 0 0 1 1.481 0l1.994 1.993c.409.41.409 1.072 0 1.481Z" fill="#0057b8" fill-rule="evenodd" data-name="icon"/></svg>