<svg xmlns="http://www.w3.org/2000/svg" width="21.999" height="22" viewBox="18 332 21.999 22"><path d="M21.222 335.222c-4.296 4.296-4.296 11.26 0 15.556 4.295 4.296 11.26 4.296 15.556 0 4.295-4.296 4.295-11.261 0-15.556-4.296-4.296-11.261-4.296-15.556 0Zm.883.884c3.653-3.652 9.499-3.786 13.324-.42l-13.743 13.743c-3.366-3.825-3.233-9.671.419-13.323Zm13.789 13.788c-3.653 3.652-9.5 3.785-13.325.419l13.744-13.743c3.366 3.825 3.233 9.672-.42 13.324Z" fill="#0057b8" fill-rule="evenodd" data-name="icon"/></svg>