<svg xmlns="http://www.w3.org/2000/svg" width="17.6" height="22" viewBox="302.8 547.5 17.6 22"><path d="M311.6 569.5c.188 0 .375-.07.52-.21.337-.334 8.28-7.134 8.28-13.134 0-4.774-3.947-8.656-8.8-8.656-4.853 0-8.8 3.882-8.8 8.656 0 6 7.943 12.8 8.28 13.133.145.14.332.211.52.211Zm0-20.557c4.044 0 7.333 3.235 7.333 7.213 0 4.579-5.582 9.736-7.333 11.58-1.751-1.844-7.333-6.997-7.333-11.58 0-3.978 3.29-7.213 7.333-7.213Zm4.4 7.213c0-2.386-1.974-4.328-4.4-4.328s-4.4 1.942-4.4 4.328 1.974 4.328 4.4 4.328 4.4-1.942 4.4-4.328Zm-7.333 0c0-1.591 1.315-2.886 2.933-2.886 1.618 0 2.933 1.295 2.933 2.886 0 1.591-1.315 2.885-2.933 2.885-1.618 0-2.933-1.294-2.933-2.885Z" fill="#0057b8" fill-rule="evenodd" data-name="icon"/></svg>