<svg xmlns="http://www.w3.org/2000/svg" width="22" height="22" viewBox="29 20 22 22"><path d="M43.13 35.844a45.616 45.616 0 0 0-.706-.416 6.152 6.152 0 0 0 0-1.431c.239-.138.476-.277.706-.416a.928.928 0 0 0 .376-1.143L43 31.217a.928.928 0 0 0-1.074-.543c-.26.065-.527.134-.793.205a6.152 6.152 0 0 0-1.012-1.012c.07-.265.14-.532.205-.793A.928.928 0 0 0 39.783 28l-1.22-.506a.928.928 0 0 0-1.144.376c-.139.23-.279.468-.416.706a6.152 6.152 0 0 0-1.431 0 45.469 45.469 0 0 0-.416-.706.928.928 0 0 0-1.143-.376L32.792 28a.928.928 0 0 0-.543 1.074c.065.262.134.528.205.793a6.152 6.152 0 0 0-1.012 1.013c-.266-.072-.532-.141-.793-.206a.927.927 0 0 0-1.074.543l-.506 1.221a.927.927 0 0 0 .376 1.143c.231.139.468.279.706.416a6.137 6.137 0 0 0 0 1.431 43.53 43.53 0 0 0-.706.416.927.927 0 0 0-.376 1.143l.506 1.221a.928.928 0 0 0 1.074.543c.26-.065.527-.134.793-.205.297.375.637.715 1.013 1.012-.072.266-.14.532-.206.793-.109.439.124.9.543 1.074l1.221.506a.927.927 0 0 0 1.143-.376c.138-.23.278-.466.416-.706a6.16 6.16 0 0 0 1.431 0c.137.237.277.474.416.706a.927.927 0 0 0 1.143.376l1.221-.506a.927.927 0 0 0 .543-1.074c-.065-.26-.134-.526-.205-.793a6.15 6.15 0 0 0 1.012-1.012c.265.07.532.14.793.205.439.11.9-.124 1.074-.543l.506-1.221a.927.927 0 0 0-.376-1.143Zm-1.02 1.938c-.25-.063-.506-.13-.76-.198a.92.92 0 0 0-.968.323c-.262.336-.565.64-.9.901a.92.92 0 0 0-.323.967c.07.256.136.511.198.76L38.235 41c-.134-.222-.268-.45-.398-.677a.92.92 0 0 0-.912-.456 5.176 5.176 0 0 1-1.274 0 .92.92 0 0 0-.912.456c-.133.23-.266.457-.398.677l-1.123-.464c.063-.251.13-.507.198-.761a.92.92 0 0 0-.323-.968 5.164 5.164 0 0 1-.9-.9.92.92 0 0 0-.968-.323c-.255.069-.51.135-.76.198L30 36.66c.221-.133.45-.267.677-.398a.92.92 0 0 0 .456-.912 5.176 5.176 0 0 1 0-1.274.92.92 0 0 0-.456-.913 43.87 43.87 0 0 1-.677-.397l.465-1.123c.25.063.505.13.76.198a.92.92 0 0 0 .968-.323 5.15 5.15 0 0 1 .9-.9.92.92 0 0 0 .323-.968 45.93 45.93 0 0 1-.198-.76l1.123-.465c.132.22.266.448.397.677a.92.92 0 0 0 .912.456c.422-.052.85-.052 1.274 0a.92.92 0 0 0 .912-.456c.132-.228.265-.455.399-.677l1.122.464c-.063.251-.13.507-.198.761a.92.92 0 0 0 .323.968c.336.262.64.565.901.9a.92.92 0 0 0 .967.323c.255-.069.51-.135.76-.198l.465 1.122c-.221.133-.449.267-.677.398a.92.92 0 0 0-.456.912c.052.422.052.85 0 1.274a.92.92 0 0 0 .456.912c.227.131.455.265.677.398l-.464 1.123Zm-2.722-4.354a3.36 3.36 0 0 0-4.385-1.816 3.36 3.36 0 0 0-1.816 4.385 3.334 3.334 0 0 0 1.816 1.816 3.352 3.352 0 0 0 2.569 0 3.36 3.36 0 0 0 1.816-4.385Zm-2.193 3.475a2.355 2.355 0 0 1-1.815 0 2.356 2.356 0 0 1-1.283-1.283 2.374 2.374 0 0 1 2.188-3.279c.93 0 1.816.552 2.194 1.464a2.374 2.374 0 0 1-1.284 3.098Zm13.141-12.566c-.17-.025-.344-.05-.52-.073a4.584 4.584 0 0 0-.353-.852c.108-.14.214-.282.316-.42a.785.785 0 0 0-.076-1.015l-.68-.68a.784.784 0 0 0-1.015-.076c-.139.103-.28.209-.42.316a4.583 4.583 0 0 0-.851-.353c-.024-.176-.049-.35-.074-.52a.784.784 0 0 0-.772-.664h-.96a.784.784 0 0 0-.772.664c-.026.17-.05.344-.074.52-.294.089-.58.207-.851.353-.14-.107-.282-.213-.42-.316a.784.784 0 0 0-1.015.076l-.68.68a.785.785 0 0 0-.076 1.015c.102.138.208.28.316.42a4.585 4.585 0 0 0-.353.852c-.176.023-.35.048-.52.073a.784.784 0 0 0-.664.772v.96c0 .384.285.716.663.772.17.026.345.05.52.074.09.295.208.58.354.851-.108.141-.214.282-.316.42a.785.785 0 0 0 .076 1.016l.68.679a.785.785 0 0 0 1.014.076c.14-.102.28-.208.42-.316.272.146.558.265.852.353.024.176.048.35.074.52a.784.784 0 0 0 .772.664h.96a.784.784 0 0 0 .772-.663l.074-.52c.294-.09.58-.208.851-.354.14.108.281.214.42.316a.785.785 0 0 0 1.015-.076l.68-.68a.784.784 0 0 0 .076-1.014 31.41 31.41 0 0 0-.316-.42c.146-.272.264-.557.353-.852.176-.024.35-.048.52-.074A.784.784 0 0 0 51 26.07v-.961a.784.784 0 0 0-.664-.772Zm-.271 1.599c-.155.022-.312.044-.47.064a.778.778 0 0 0-.652.566c-.08.29-.195.568-.344.83a.779.779 0 0 0 .06.86c.098.127.194.254.288.379l-.49.49a34.53 34.53 0 0 1-.379-.287.778.778 0 0 0-.86-.06c-.262.148-.541.264-.83.343a.778.778 0 0 0-.566.652c-.02.158-.042.315-.065.47h-.693a32.483 32.483 0 0 1-.064-.47.778.778 0 0 0-.565-.652 3.637 3.637 0 0 1-.83-.344.778.778 0 0 0-.862.061c-.125.097-.252.193-.378.287l-.49-.49c.094-.126.19-.252.287-.379a.777.777 0 0 0 .06-.86 3.65 3.65 0 0 1-.343-.83.778.778 0 0 0-.652-.566 32.53 32.53 0 0 1-.47-.064v-.693c.154-.023.312-.044.47-.065a.778.778 0 0 0 .651-.565c.08-.29.196-.569.345-.83a.778.778 0 0 0-.061-.861 31.797 31.797 0 0 1-.287-.378l.49-.49c.126.093.253.19.378.286.25.192.588.216.861.061.262-.148.541-.264.83-.344a.777.777 0 0 0 .565-.652l.065-.47h.693c.023.155.045.312.065.47.04.313.263.569.565.652.29.08.57.195.83.344a.779.779 0 0 0 .861-.06c.126-.097.253-.194.378-.287l.49.49c-.093.125-.189.252-.286.378a.779.779 0 0 0-.061.86c.149.262.264.542.344.831.083.302.34.524.652.565.158.02.315.042.47.065v.693Zm-4.654-2.34c-1.1 0-1.994.894-1.994 1.993 0 1.1.895 1.994 1.994 1.994 1.1 0 1.994-.894 1.994-1.994s-.895-1.993-1.994-1.993Zm0 3.1c-.61 0-1.108-.496-1.108-1.107a1.109 1.109 0 0 1 2.215 0c0 .61-.496 1.108-1.107 1.108Zm0 0" fill="#fff" fill-rule="evenodd" data-name="icon"/></svg>