<svg xmlns="http://www.w3.org/2000/svg" width="19.336" height="22" viewBox="7.166 755.701 19.336 22"><path d="M23.494 766.996v-2.057c0-3-1.994-5.543-4.727-6.373v-.931a1.936 1.936 0 0 0-1.934-1.934 1.936 1.936 0 0 0-1.933 1.934v.93c-2.733.831-4.727 3.374-4.727 6.374v2.057c0 2.635-1.005 5.134-2.828 7.036a.644.644 0 0 0 .465 1.091h5.866a3.227 3.227 0 0 0 3.157 2.578 3.227 3.227 0 0 0 3.158-2.578h5.866a.644.644 0 0 0 .466-1.09 10.12 10.12 0 0 1-2.83-7.037Zm-7.305-9.361a.645.645 0 0 1 1.289 0v.676a6.687 6.687 0 0 0-1.289 0v-.676Zm.644 18.777c-.84 0-1.556-.539-1.823-1.289h3.647a1.937 1.937 0 0 1-1.824 1.29ZM9.2 773.834a11.397 11.397 0 0 0 2.263-6.838v-2.057a5.377 5.377 0 0 1 5.371-5.37 5.377 5.377 0 0 1 5.372 5.37v2.057c0 2.49.795 4.87 2.263 6.838H9.198Zm16.013-8.895a.645.645 0 0 0 1.29 0 9.605 9.605 0 0 0-2.833-6.836.644.644 0 1 0-.91.912 8.321 8.321 0 0 1 2.453 5.924Zm-17.402.645a.645.645 0 0 0 .645-.645c0-2.238.87-4.342 2.454-5.924a.645.645 0 1 0-.912-.912 9.608 9.608 0 0 0-2.831 6.836c0 .357.288.645.644.645Zm0 0" fill="#2d3d5e" fill-rule="evenodd" data-name="icon"/></svg>