<svg xmlns="http://www.w3.org/2000/svg" width="22" height="21.999" viewBox="300.6 547.5 22 21.999"><path d="M316.865 560.889a1.71 1.71 0 0 0-2.42 0l-.935.934a15.751 15.751 0 0 1-5.233-5.233l1.025-1.025a1.713 1.713 0 0 0 0-2.42l-3.21-3.209a1.71 1.71 0 0 0-2.421.002l-2.017 2.033c-.965.81-1.304 2.14-.864 3.4 2.258 6.47 7.469 11.681 13.939 13.94 1.217.424 2.467.106 3.262-.713a.702.702 0 0 0 .034-.031l2.049-2.05a1.713 1.713 0 0 0 0-2.42l-3.21-3.208Zm2.186 4.606-2.002 2.003a.706.706 0 0 0-.07.066c-.421.459-1.1.617-1.774.381-6.058-2.114-10.936-6.992-13.05-13.05-.242-.694-.067-1.412.445-1.83a.733.733 0 0 0 .056-.051l2.039-2.055a.264.264 0 0 1 .375 0l3.21 3.209a.266.266 0 0 1 0 .375l-1.42 1.42a.723.723 0 0 0-.12.866 17.199 17.199 0 0 0 6.531 6.53c.283.16.637.111.867-.118l1.33-1.33a.265.265 0 0 1 .375 0l3.209 3.21a.266.266 0 0 1 0 .374Zm-7.62-11.63c0-.399.324-.723.724-.723a4.809 4.809 0 0 1 4.803 4.804.723.723 0 0 1-1.446 0 3.361 3.361 0 0 0-3.357-3.358.723.723 0 0 1-.723-.723Zm0-2.837c0-.4.324-.723.724-.723 4.212 0 7.64 3.428 7.64 7.64a.723.723 0 0 1-1.446 0 6.202 6.202 0 0 0-6.194-6.194.723.723 0 0 1-.723-.723Zm11.17 6.918a.723.723 0 0 1-1.447 0c0-4.963-4.037-9-9-9a.723.723 0 0 1 0-1.446c2.79 0 5.414 1.086 7.387 3.06a10.377 10.377 0 0 1 3.06 7.386Z" fill="#0057b8" fill-rule="evenodd" data-name="icon"/></svg>