<svg xmlns="http://www.w3.org/2000/svg" width="22" height="22" viewBox="20 0 22 22"><path d="M31 22a11.003 11.003 0 0 1-11-11c0-2.938 1.144-5.7 3.222-7.778A10.929 10.929 0 0 1 31 0c2.938 0 5.7 1.144 7.778 3.222A10.929 10.929 0 0 1 42 11a11.008 11.008 0 0 1-3.887 8.391A11.003 11.003 0 0 1 31 22Zm0-20.625c-5.307 0-9.625 4.318-9.625 9.625a9.632 9.632 0 0 0 3.401 7.342 9.627 9.627 0 0 0 13.584-1.14A9.63 9.63 0 0 0 40.625 11c0-5.307-4.318-9.625-9.625-9.625ZM31 11a4.13 4.13 0 0 1-4.125-4.125A4.13 4.13 0 0 1 31 2.75a4.13 4.13 0 0 1 4.125 4.125A4.13 4.13 0 0 1 31 11Zm0-6.875a2.753 2.753 0 0 0-2.75 2.75A2.753 2.753 0 0 0 31 9.625a2.753 2.753 0 0 0 2.75-2.75A2.753 2.753 0 0 0 31 4.125Zm6.669 15.43a.687.687 0 0 1-.667-.855c.123-.492.186-1 .186-1.513 0-3.363-2.735-6.138-6.097-6.187h-.181c-3.363.049-6.097 2.824-6.097 6.187 0 .512.062 1.02.185 1.512a.687.687 0 1 1-1.333.335 7.591 7.591 0 0 1-.227-1.847c0-2 .774-3.888 2.18-5.312a7.517 7.517 0 0 1 5.275-2.25H31.108a7.517 7.517 0 0 1 5.274 2.25 7.517 7.517 0 0 1 2.18 5.312c0 .625-.076 1.246-.227 1.847a.688.688 0 0 1-.666.52Zm0 0" fill="#2d3d5e" fill-rule="evenodd" data-name="icon"/></svg>