<svg xmlns="http://www.w3.org/2000/svg" width="20" height="20.004" viewBox="316 278.998 20 20.004"><path d="m335.81 297.916-5.165-5.084a8.166 8.166 0 0 0 2.182-5.55c0-4.577-3.766-8.284-8.411-8.284-4.65 0-8.416 3.707-8.416 8.284 0 4.573 3.766 8.283 8.416 8.283a8.47 8.47 0 0 0 5.295-1.85l5.183 5.101a.657.657 0 0 0 .916 0 .629.629 0 0 0 0-.9Zm-11.394-3.627c-3.935 0-7.122-3.139-7.122-7.007 0-3.872 3.187-7.01 7.122-7.01 3.93 0 7.118 3.138 7.118 7.01 0 3.868-3.187 7.007-7.118 7.007Zm0 0" fill="#2d3d5e" fill-rule="evenodd" data-name="icon"/></svg>