<svg xmlns="http://www.w3.org/2000/svg" width="24" height="16" viewBox="311 269 24 16"><path d="M334.952 276.769c-2.042-4.72-6.734-7.77-11.952-7.77s-9.91 3.05-11.952 7.77a.58.58 0 0 0 0 .462C313.09 281.95 317.782 285 323 285s9.91-3.05 11.952-7.77a.581.581 0 0 0 0-.461ZM323 283.819c-4.65 0-8.839-2.668-10.743-6.82 1.905-4.15 6.093-6.818 10.743-6.818s8.839 2.668 10.743 6.819c-1.904 4.15-6.093 6.82-10.743 6.82Zm0-11.342c-2.537 0-4.602 2.03-4.602 4.523 0 2.494 2.065 4.523 4.602 4.523 2.537 0 4.602-2.03 4.602-4.523 0-2.494-2.065-4.523-4.602-4.523Zm0 7.865c-1.875 0-3.4-1.5-3.4-3.342 0-1.843 1.525-3.342 3.4-3.342s3.4 1.5 3.4 3.342c0 1.843-1.525 3.342-3.4 3.342Zm0-5.743c-1.347 0-2.443 1.077-2.443 2.401 0 .326.269.59.6.59.333 0 .601-.264.601-.59 0-.673.557-1.22 1.242-1.22.332 0 .601-.265.601-.59 0-.327-.27-.591-.6-.591Zm0 0" fill="#0057b8" fill-rule="evenodd" data-name="eye"/></svg>