<svg xmlns="http://www.w3.org/2000/svg" width="50" height="31.857" viewBox="15 15 50 31.857"><path d="M40 15c-13.807 0-25 7.132-25 15.929s11.193 15.928 25 15.928 25-7.131 25-15.928S53.807 15 40 15Zm-18.524 9.625c.688 2.878 5.692 5.267 12.465 6.176l-.002.407c0 6.825 1.964 12.55 4.612 14.108-10.986-.526-19.652-6.586-19.652-13.985 0-2.43.934-4.714 2.577-6.706Zm14.95 6.435c1.157.088 2.352.134 3.574.134s2.417-.046 3.573-.134c-.164 5.063-1.7 9.03-3.573 9.03-1.872 0-3.41-3.967-3.573-9.03Zm9.633-.26c6.926-.928 12.002-3.407 12.505-6.372 1.746 2.038 2.742 4.393 2.742 6.903 0 7.448-8.783 13.54-19.874 13.994 2.656-1.542 4.63-7.278 4.63-14.117 0-.136-.002-.272-.003-.407Zm-3.893-13.163c6.924.352 12.232 2.368 12.232 4.802 0 1.987-3.54 3.696-8.61 4.448-.552-4.253-1.897-7.668-3.622-9.25Zm1.255 9.52c-1.097.09-2.242.138-3.421.138a41.89 41.89 0 0 1-3.42-.138c.46-4.014 1.817-6.922 3.42-6.922s2.96 2.908 3.42 6.922Zm-9.21-.27c-5.069-.752-8.609-2.46-8.609-4.448 0-.821.604-1.595 1.671-2.273a25.153 25.153 0 0 1 4.06-1.606c1.866-.475 4.085-.8 6.5-.923-1.724 1.582-3.07 4.997-3.621 9.25Z" fill="#fff" fill-rule="evenodd" data-name="icon"/></svg>